<svg width="21" height="19" viewBox="0 0 21 19" fill="none" xmlns="http://www.w3.org/2000/svg">
<g clip-path="url(#clip0_18199_1157)">
<path d="M0.751465 11.5527V13.9574C0.751465 14.9545 1.62243 15.6583 2.68695 15.6583H18.816C19.8805 15.6583 20.7515 14.9545 20.7515 13.9574V11.5527H0.751465Z" fill="#F8D12E"/>
<path d="M18.816 3.3418H2.68695C1.62243 3.3418 0.751465 4.04561 0.751465 5.04268V7.44737H20.7515V5.04268C20.7515 4.04561 19.8805 3.3418 18.816 3.3418Z" fill="#333333"/>
<path d="M20.7515 7.44727H0.751465V11.5528H20.7515V7.44727Z" fill="#DB2727"/>
<path d="M18.7515 15.6583C19.816 15.6583 20.7515 14.9545 20.7515 13.9574V11.5527H13.4612L18.7515 15.6583Z" fill="#DBB30F"/>
<path d="M18.8161 3.3418H2.68701L8.04185 7.44737H20.7515V5.04268C20.7515 4.04561 19.8806 3.3418 18.8161 3.3418Z" fill="black"/>
<path d="M13.4934 11.5528H20.7515V7.44727H8.00952L13.4934 11.5528Z" fill="#C10E0E"/>
<path d="M18.8161 3.3418H2.68701L17.6225 7.44737H20.7515V5.04268C20.7515 4.04561 19.8806 3.3418 18.8161 3.3418Z" fill="black"/>
<path d="M20.7515 8.26838V7.44727H17.4612L20.7515 8.26838Z" fill="#A00808"/>
<path d="M20.7515 13.9283C20.7515 15.0133 19.8805 15.6585 18.816 15.6585H2.68695C1.62243 15.6585 0.751465 14.896 0.751465 13.8989" fill="#D89F12"/>
</g>
<defs>
<clipPath id="clip0_18199_1157">
<rect width="20" height="18.1818" fill="white" transform="translate(0.751465 0.40918)"/>
</clipPath>
</defs>
</svg>
